<?xml version="1.0" encoding="UTF-8" standalone="no"?>
<!DOCTYPE svg PUBLIC "-//W3C//DTD SVG 1.1//EN" "http://www.w3.org/Graphics/SVG/1.1/DTD/svg11.dtd">
<svg width="100%" height="100%" viewBox="0 0 756 263" version="1.1" xmlns="http://www.w3.org/2000/svg" xmlns:xlink="http://www.w3.org/1999/xlink" xml:space="preserve" xmlns:serif="http://www.serif.com/" style="fill-rule:evenodd;clip-rule:evenodd;stroke-miterlimit:10;">
    <g id="Calque-1" serif:id="Calque 1">
        <g transform="matrix(1,0,0,1,179.133,135.667)">
            <path d="M0,-19.994C-8.583,-38.783 -20.3,-53.361 -31.931,-61.053L-28.88,-67.305C-28.346,-68.435 -28.279,-69.725 -28.7,-70.9C-29.118,-72.076 -29.987,-73.034 -31.114,-73.568C-32.24,-74.101 -33.535,-74.168 -34.71,-73.747C-35.885,-73.329 -36.844,-72.46 -37.377,-71.33L-40.152,-65.604C-42.749,-66.704 -45.565,-67.196 -48.381,-67.032C-51.168,-67.155 -53.947,-66.667 -56.524,-65.6L-59.296,-71.326C-60.37,-73.653 -63.231,-74.635 -65.559,-73.564C-67.887,-72.49 -68.868,-69.625 -67.797,-67.297L-64.753,-61.038C-76.388,-53.339 -88.202,-38.753 -96.703,-19.964C-111.751,13.224 -110.419,45.166 -93.599,52.854C-90.913,54.104 -87.963,54.641 -84.829,54.641C-73.646,54.637 -60.128,47.393 -48.504,36.918C-36.157,47.829 -22.117,54.447 -11.377,54.443C-8.337,54.443 -5.562,53.906 -3.145,52.832C5.442,48.896 10.366,38.783 10.549,24.291C10.639,11.049 6.886,-4.7 0,-19.994M-48.411,23.945C-51.101,21.024 -53.581,17.913 -55.834,14.641L-40.98,14.638C-43.207,17.931 -45.692,21.042 -48.411,23.945M-34.18,2.291L-62.631,2.298C-64.298,-1.503 -65.585,-5.457 -66.473,-9.508L-30.331,-9.519C-31.222,-5.465 -32.509,-1.511 -34.18,2.291M-48.392,-57.651C-46.512,-57.557 -44.547,-57.024 -42.394,-56.125C-37.026,-52.906 -32.289,-45.117 -30.137,-35.736C-29.055,-31.166 -28.604,-26.473 -28.794,-21.781L-67.995,-21.77C-68.092,-26.455 -67.641,-31.14 -66.648,-35.724C-64.5,-45.117 -59.755,-52.902 -54.379,-56.118C-52.499,-57.002 -50.466,-57.52 -48.392,-57.651M-89.75,44.353C-99.944,39.701 -101.817,13.761 -88.213,-16.036C-84.863,-23.497 -80.722,-30.577 -75.862,-37.157C-79.003,-22.833 -77.212,-7.095 -70.595,7.308C-66.659,15.984 -61.202,23.769 -55.032,30.476C-68.185,41.932 -82.681,47.482 -89.75,44.353M-7.076,44.327C-14.145,47.546 -28.723,41.917 -41.879,30.372C-35.348,23.303 -29.805,15.346 -26.216,7.375C-19.681,-7.031 -17.801,-22.773 -20.927,-37.09C-16.551,-31.177 -12.343,-24.105 -8.587,-15.965C-2.238,-1.921 1.246,12.392 1.067,24.291C0.974,34.669 -1.985,42.006 -7.076,44.327" style="fill:rgb(100,95,81);fill-rule:nonzero;"/>
        </g>
        <g transform="matrix(1,0,0,1,258.874,117.142)">
            <path d="M0,31.588C4.479,31.588 8.146,30.136 11.006,27.231C13.865,24.322 15.294,20.487 15.294,15.722C15.294,10.961 13.865,7.126 11.006,4.217C8.146,1.312 4.479,-0.145 0,-0.145C-4.479,-0.145 -8.146,1.312 -11.006,4.217C-13.865,7.126 -15.294,10.961 -15.294,15.722C-15.294,20.487 -13.865,24.322 -11.006,27.231C-8.146,30.136 -4.479,31.588 0,31.588M40.877,33.735C42.307,33.735 43.401,33.494 44.168,33.018L42.879,48.598C41.735,48.884 40.21,49.17 38.304,49.456C36.398,49.742 34.637,49.882 33.017,49.882C25.488,49.882 20.296,47.359 17.437,42.308C14.482,44.881 11.169,46.86 7.502,48.239C3.835,49.619 -0.095,50.313 -4.289,50.313C-8.864,50.313 -13.13,49.433 -17.083,47.668C-21.036,45.907 -24.489,43.479 -27.444,40.379C-30.398,37.284 -32.708,33.639 -34.378,29.446C-36.044,25.252 -36.879,20.678 -36.879,15.722C-36.879,10.77 -36.044,6.196 -34.378,2.002C-32.708,-2.191 -30.398,-5.836 -27.444,-8.935C-24.489,-12.031 -21.036,-14.436 -17.083,-16.152C-13.13,-17.867 -8.864,-18.725 -4.289,-18.725C4.094,-18.725 11.242,-16.152 17.151,-11.005L18.154,-17.155L35.735,-17.155L35.735,28.302C35.735,30.208 36.185,31.588 37.092,32.446C37.996,33.304 39.257,33.735 40.877,33.735" style="fill:rgb(3,135,201);fill-rule:nonzero;"/>
        </g>
        <g transform="matrix(1,0,0,1,352.497,140.443)">
            <path d="M0,8.287C4.575,8.287 8.264,6.785 11.078,3.785C13.888,0.785 15.294,-3.005 15.294,-7.579C15.294,-12.154 13.888,-15.939 11.078,-18.943C8.264,-21.943 4.575,-23.446 0,-23.446C-4.67,-23.446 -8.41,-21.921 -11.223,-18.871C-14.033,-15.821 -15.44,-12.054 -15.44,-7.579C-15.44,-3.1 -14.033,0.667 -11.223,3.712C-8.41,6.767 -4.67,8.287 0,8.287M3.572,-42.026C8.146,-42.026 12.458,-41.168 16.506,-39.453C20.559,-37.737 24.085,-35.332 27.085,-32.236C30.085,-29.137 32.445,-25.492 34.161,-21.299C35.876,-17.105 36.734,-12.531 36.734,-7.579C36.734,-2.623 35.876,1.951 34.161,6.145C32.445,10.338 30.085,13.983 27.085,17.078C24.085,20.178 20.559,22.606 16.506,24.367C12.458,26.132 8.146,27.012 3.572,27.012C-3.672,27.012 -10.007,24.966 -15.44,20.867L-15.44,50.313L-36.162,50.313L-36.162,-20.441L-37.592,-39.884L-18.44,-41.595L-17.868,-34.02C-11.959,-39.357 -4.815,-42.026 3.572,-42.026" style="fill:rgb(3,135,201);fill-rule:nonzero;"/>
        </g>
        <g transform="matrix(1,0,0,1,427.675,82.6913)">
            <path d="M0,68.185C0.858,68.185 1.598,68.112 2.215,67.967C2.837,67.826 3.336,67.659 3.717,67.468L2.433,83.048C1.38,83.334 0.023,83.62 -1.643,83.906C-3.313,84.192 -5.528,84.333 -8.287,84.333C-13.915,84.333 -18.131,82.858 -20.94,79.903C-23.75,76.953 -25.156,72.805 -25.156,67.468L-25.156,37.451L-26.441,17.727L-4.429,16.297L-4.429,63.179C-4.429,64.804 -4.026,66.038 -3.213,66.896C-2.405,67.754 -1.334,68.185 0,68.185M-14.723,8.292C-18.154,8.292 -21.036,7.148 -23.368,4.861C-25.706,2.578 -26.922,-0.331 -27.013,-3.858C-27.108,-7.475 -25.942,-10.429 -23.513,-12.717C-21.081,-15.004 -18.154,-16.148 -14.723,-16.148C-11.292,-16.148 -8.387,-15.004 -6.004,-12.717C-3.622,-10.429 -2.428,-7.525 -2.428,-3.998C-2.337,-0.377 -3.499,2.578 -5.932,4.861C-8.36,7.148 -11.292,8.292 -14.723,8.292" style="fill:rgb(3,135,201);fill-rule:nonzero;"/>
        </g>
        <g transform="matrix(1,0,0,1,476.132,90.7007)">
            <path d="M0,58.029C4.479,58.029 8.146,56.577 11.006,53.672C13.865,50.763 15.294,46.928 15.294,42.163C15.294,37.402 13.865,33.567 11.006,30.658C8.146,27.753 4.479,26.296 0,26.296C-4.479,26.296 -8.146,27.776 -11.006,30.73C-13.865,33.685 -15.294,37.497 -15.294,42.163C-15.294,47.023 -13.819,50.881 -10.865,53.74C-7.91,56.599 -4.289,58.029 0,58.029M40.877,60.176C42.212,60.176 43.355,59.935 44.309,59.459L43.024,75.039C41.88,75.325 40.356,75.611 38.449,75.897C36.543,76.183 34.732,76.323 33.017,76.323C25.297,76.323 20.055,73.705 17.296,68.463C14.532,71.131 11.314,73.183 7.647,74.612C3.976,76.037 0,76.754 -4.289,76.754C-8.673,76.754 -12.844,75.897 -16.797,74.181C-20.75,72.466 -24.226,70.106 -27.23,67.106C-30.23,64.106 -32.59,60.53 -34.306,56.386C-36.021,52.243 -36.879,47.74 -36.879,42.88C-36.879,37.543 -36.021,32.732 -34.306,28.443C-32.59,24.154 -30.28,20.46 -27.371,17.365C-24.467,14.27 -21.036,11.887 -17.083,10.217C-13.13,8.551 -8.863,7.716 -4.289,7.716C3.236,7.716 9.671,9.672 15.009,13.575L15.009,-17.726L35.735,-18.725L35.735,54.743C35.735,56.649 36.185,58.029 37.092,58.887C37.996,59.745 39.257,60.176 40.877,60.176" style="fill:rgb(3,135,201);fill-rule:nonzero;"/>
        </g>
        <g transform="matrix(1,0,0,1,565.321,117.142)">
            <path d="M0,31.588C4.479,31.588 8.146,30.136 11.006,27.231C13.865,24.322 15.294,20.487 15.294,15.722C15.294,10.961 13.865,7.126 11.006,4.217C8.146,1.312 4.479,-0.145 0,-0.145C-4.479,-0.145 -8.146,1.312 -11.006,4.217C-13.865,7.126 -15.294,10.961 -15.294,15.722C-15.294,20.487 -13.865,24.322 -11.006,27.231C-8.146,30.136 -4.479,31.588 0,31.588M40.878,33.735C42.307,33.735 43.401,33.494 44.168,33.018L42.879,48.598C41.735,48.884 40.21,49.17 38.304,49.456C36.398,49.742 34.637,49.882 33.017,49.882C25.488,49.882 20.296,47.359 17.437,42.308C14.482,44.881 11.169,46.86 7.502,48.239C3.835,49.619 -0.095,50.313 -4.289,50.313C-8.864,50.313 -13.13,49.433 -17.083,47.668C-21.036,45.907 -24.489,43.479 -27.444,40.379C-30.398,37.284 -32.708,33.639 -34.378,29.446C-36.044,25.252 -36.879,20.678 -36.879,15.722C-36.879,10.77 -36.044,6.196 -34.378,2.002C-32.708,-2.191 -30.398,-5.836 -27.444,-8.935C-24.489,-12.031 -21.036,-14.436 -17.083,-16.152C-13.13,-17.867 -8.864,-18.725 -4.289,-18.725C4.094,-18.725 11.242,-16.152 17.151,-11.005L18.154,-17.155L35.735,-17.155L35.735,28.302C35.735,30.208 36.185,31.588 37.092,32.446C37.996,33.304 39.257,33.735 40.878,33.735" style="fill:rgb(3,135,201);fill-rule:nonzero;"/>
        </g>
        <g transform="matrix(1,0,0,1,654.8,150.591)">
            <path d="M0,-35.309C-3.717,-35.309 -7.125,-34.115 -10.221,-31.733C-13.316,-29.35 -15.294,-25.919 -16.152,-21.444C-7.77,-21.249 -1.765,-21.893 1.856,-23.373C5.478,-24.848 7.289,-26.967 7.289,-29.731C7.289,-31.637 6.644,-33.044 5.36,-33.947C4.076,-34.855 2.287,-35.309 0,-35.309M-16.438,-14.296C-15.771,-10.198 -13.792,-6.908 -10.506,-4.434C-7.221,-1.956 -2.337,-0.717 4.144,-0.717C9.576,-0.717 13.937,-1.384 17.223,-2.719C20.509,-4.053 23.346,-5.623 25.728,-7.434L24.153,11.005C22.247,12.34 19.225,13.647 15.081,14.936C10.933,16.22 5.718,16.865 -0.572,16.865C-6.1,16.865 -11.128,16.102 -15.653,14.577C-20.178,13.052 -24.04,10.887 -27.23,8.074C-30.426,5.264 -32.899,1.811 -34.664,-2.288C-36.425,-6.386 -37.306,-11.01 -37.306,-16.152C-37.306,-21.299 -36.375,-26.087 -34.519,-30.521C-32.663,-34.95 -30.067,-38.758 -26.731,-41.953C-23.396,-45.144 -19.438,-47.644 -14.868,-49.46C-10.293,-51.266 -5.287,-52.174 0.141,-52.174C4.811,-52.174 8.864,-51.602 12.29,-50.458C15.721,-49.315 18.558,-47.744 20.795,-45.743C23.032,-43.741 24.703,-41.427 25.801,-38.808C26.895,-36.185 27.444,-33.398 27.444,-30.448C27.444,-23.491 25.061,-18.104 20.296,-14.296C15.53,-10.484 9.149,-8.578 1.144,-8.578C-2.859,-8.578 -6.386,-9.077 -9.435,-10.08C-12.485,-11.078 -14.818,-12.485 -16.438,-14.296" style="fill:rgb(3,135,201);fill-rule:nonzero;"/>
        </g>
        <g transform="matrix(-1,0,0,1,755.082,-0.037)">
            <rect x="0.005" y="0.053" width="755.072" height="262.18" style="fill:none;stroke:white;stroke-width:0.01px;"/>
        </g>
    </g>
</svg>
