<svg width="1150" height="296" viewBox="0 0 1150 296" xmlns="http://www.w3.org/2000/svg"><g fill="none" fill-rule="evenodd"><path d="M207.24433 32.45857l4.16-4.24287C191.53355 16.6247 168.5197 10 143.98877 10 68.88425 10 8 72.09703 8 148.6976s60.88425 138.6976 135.98877 138.6976c75.10452 0 135.98877-62.09703 135.98877-138.6976 0-17.01303-3.00334-33.31063-8.49878-48.37135l-4.42772 4.51592c4.70346 13.73047 7.2603 28.4884 7.2603 43.85543 0 73.40888-58.3474 132.91854-130.32257 132.91854-71.97517 0-130.32257-59.50966-130.32257-132.91854 0-73.40888 58.3474-132.91853 130.32257-132.91853 22.9549 0 44.52366 6.05303 63.25556 16.6795z" stroke="#7ED321" stroke-width="12"/><path d="M111.40812 182.7115l.81236-.82855L273.3019 17.59287l6.2261-6.35012L291.98017 23.943l-6.2261 6.3501-161.0814 164.2901-.81236.82852-12.4522 12.70024-6.2261-6.35012-44.94677-45.8421-6.2261-6.35012 12.4522-12.70023 6.2261 6.3501 38.72067 39.492z" fill="#7ED321"/><path d="M335 147c0-10.66672 1.87498-21.2916 5.625-31.875 3.75002-10.5834 9.2083-20.04162 16.375-28.375 7.1667-8.33338 15.99995-15.12497 26.5-20.375 10.50005-5.25003 22.4166-7.875 35.75-7.875 15.8334 0 29.33328 3.5833 40.5 10.75 11.16672 7.1667 19.49997 16.49994 25 28l-14 8.5c-2.83335-5.83336-6.24998-10.74998-10.25-14.75-4.00002-4.00002-8.3333-7.25-13-9.75-4.6667-2.5-9.49998-4.29166-14.5-5.375-5.00002-1.08334-9.91664-1.625-14.75-1.625-10.66672 0-20.0833 2.16665-28.25 6.5-8.1667 4.33335-15.04164 9.99997-20.625 17-5.58336 7.00003-9.79165 14.87496-12.625 23.625-2.83335 8.75004-4.25 17.62495-4.25 26.625 0 9.83338 1.70832 19.24995 5.125 28.25 3.41668 9.00005 8.0833 16.9583 14 23.875 5.9167 6.9167 12.91663 12.41665 21 16.5 8.08337 4.08335 16.87495 6.125 26.375 6.125 5.00002 0 10.12497-.625 15.375-1.875 5.25003-1.25 10.3333-3.25 15.25-6 4.9167-2.75 9.4583-6.16665 13.625-10.25 4.1667-4.08335 7.66665-9.04164 10.5-14.875l14.5 7.5c-2.83335 6.6667-6.8333 12.54164-12 17.625-5.1667 5.08336-10.91663 9.37498-17.25 12.875-6.33337 3.50002-13.04163 6.16666-20.125 8-7.08337 1.83334-14.04163 2.75-20.875 2.75-12.16673 0-23.33328-2.66664-33.5-8-10.16672-5.33336-18.91663-12.29162-26.25-20.875-7.33337-8.58338-13.04165-18.33328-17.125-29.25C337.04165 169.45828 335 158.3334 335 147zm214 92.5c-6.6667 0-12.74997-1.04166-18.25-3.125-5.50003-2.08334-10.2083-4.9583-14.125-8.625-3.9167-3.6667-6.95832-7.91664-9.125-12.75-2.16668-4.83336-3.25-9.91664-3.25-15.25 0-6.00003 1.33332-11.4583 4-16.375 2.66668-4.9167 6.41664-9.12498 11.25-12.625 4.83336-3.50002 10.62497-6.20832 17.375-8.125 6.75003-1.91668 14.2083-2.875 22.375-2.875 6.50003 0 13.16663.58333 20 1.75 6.83337 1.16667 12.91664 2.83332 18.25 5v-11.75c0-11.50006-3.29163-20.62497-9.875-27.375-6.58337-6.75003-15.45828-10.125-26.625-10.125-7.00004 0-13.9583 1.33332-20.875 4-6.9167 2.66668-13.9583 6.49998-21.125 11.5l-6-11.25c8.50004-5.6667 16.74996-9.91665 24.75-12.75 8.00004-2.83335 16.3333-4.25 25-4.25 15.8334 0 28.41662 4.5833 37.75 13.75 9.33338 9.1667 14 21.83325 14 38V215c0 4.6667 1.99998 7 6 7v15c-1.33334.16667-2.58333.29167-3.75.375-1.16667.08333-2.16666.125-3 .125-3.33335 0-6.375-1-9.125-3s-4.29166-4.99998-4.625-9l-.5-10.25c-5.6667 7.6667-13.12495 13.62498-22.375 17.875-9.25005 4.25002-18.62495 6.375-28.125 6.375zm4.25-13c7.50004 0 14.9583-1.62498 22.375-4.875 7.4167-3.25002 13.29165-7.7083 17.625-13.375 1.16667-1.5 2.16666-3.125 3-4.875.83334-1.75 1.25-3.375 1.25-4.875v-21.25c-5.6667-2.16668-11.5833-3.83333-17.75-5-6.1667-1.16667-12.16664-1.75-18-1.75-12.16673 0-22.04163 2.4583-29.625 7.375-7.58337 4.9167-11.375 11.7083-11.375 20.375 0 3.50002.66666 6.91665 2 10.25 1.33334 3.33335 3.375 6.33332 6.125 9 2.75 2.66668 6.12498 4.83333 10.125 6.5 4.00002 1.66667 8.74997 2.5 14.25 2.5zm89.75-55c0-9.1667 1.58332-17.8333 4.75-26 3.16668-8.1667 7.62497-15.29164 13.375-21.375 5.75003-6.08336 12.62496-10.87498 20.625-14.375 8.00004-3.50002 16.8333-5.25 26.5-5.25 12.3334 0 23.0833 2.79164 32.25 8.375 9.1667 5.58336 16.0833 13.12495 20.75 22.625l-16.5 5.25c-3.6667-6.6667-8.74997-11.87498-15.25-15.625-6.50003-3.75002-13.74996-5.625-21.75-5.625-6.6667 0-12.87497 1.33332-18.625 4-5.75003 2.66668-10.74998 6.29164-15 10.875-4.25002 4.58336-7.58332 10.04164-10 16.375-2.41668 6.33336-3.625 13.24996-3.625 20.75 0 7.33337 1.25 14.24997 3.75 20.75 2.5 6.50003 5.91665 12.12498 10.25 16.875 4.33335 4.75002 9.37497 8.5 15.125 11.25 5.75003 2.75 11.87497 4.125 18.375 4.125 4.1667 0 8.29165-.58333 12.375-1.75 4.08335-1.16667 7.87498-2.79166 11.375-4.875s6.5-4.45832 9-7.125c2.5-2.66668 4.25-5.5 5.25-8.5l16.5 5c-1.83334 4.6667-4.49998 8.9583-8 12.875-3.50002 3.9167-7.62498 7.33332-12.375 10.25-4.75002 2.91668-9.99997 5.16666-15.75 6.75-5.75003 1.58334-11.7083 2.375-17.875 2.375-9.50005 0-18.24996-1.79165-26.25-5.375-8.00004-3.58335-14.91664-8.49997-20.75-14.75-5.83336-6.25003-10.37498-13.4583-13.625-21.625-3.25002-8.1667-4.875-16.91662-4.875-26.25zM898.5 237h-17v-72.75c0-14.8334-2.54164-25.91663-7.625-33.25-5.08336-7.33337-12.54162-11-22.375-11-4.83336 0-9.62498.95832-14.375 2.875-4.75002 1.91668-9.2083 4.54165-13.375 7.875-4.1667 3.33335-7.79165 7.24998-10.875 11.75-3.08335 4.50002-5.375 9.41664-6.875 14.75V237h-17V54.5h17v81.75c5.33336-9.83338 12.5833-17.5833 21.75-23.25 9.1667-5.6667 18.99995-8.5 29.5-8.5 7.50004 0 13.87497 1.375 19.125 4.125 5.25003 2.75 9.49998 6.5833 12.75 11.5 3.25002 4.9167 5.625 10.8333 7.125 17.75 1.5 6.9167 2.25 14.54163 2.25 22.875V237zm92.25 2.5c-9.50005 0-18.24996-1.79165-26.25-5.375-8.00004-3.58335-14.91664-8.49997-20.75-14.75-5.83336-6.25003-10.37498-13.4583-13.625-21.625-3.25002-8.1667-4.875-16.91662-4.875-26.25 0-9.1667 1.62498-17.79163 4.875-25.875 3.25002-8.08337 7.79164-15.16664 13.625-21.25 5.83336-6.08336 12.7083-10.91665 20.625-14.5 7.9167-3.58335 16.62495-5.375 26.125-5.375 9.50005 0 18.2083 1.79165 26.125 5.375 7.9167 3.58335 14.7083 8.4583 20.375 14.625 5.6667 6.1667 10.08332 13.24996 13.25 21.25 3.16668 8.00004 4.75 16.49995 4.75 25.5 0 1.33334-.04167 2.66666-.125 4-.08333 1.33334-.20833 2.25-.375 2.75H943.25c.5 7.00003 2.125 13.4583 4.875 19.375 2.75 5.9167 6.24998 11.04164 10.5 15.375 4.25002 4.33336 9.16664 7.70832 14.75 10.125 5.58336 2.41668 11.54164 3.625 17.875 3.625 4.33335 0 8.5833-.58333 12.75-1.75 4.1667-1.16667 7.99998-2.75 11.5-4.75s6.625-4.45832 9.375-7.375c2.75-2.91668 4.875-6.12498 6.375-9.625l14.75 4c-2 4.83336-4.8333 9.2083-8.5 13.125-3.66668 3.9167-7.91664 7.33332-12.75 10.25-4.83336 2.91668-10.16664 5.16666-16 6.75-5.83336 1.58334-11.8333 2.375-18 2.375zm48-74.5c-.5-7.00003-2.125-13.37497-4.875-19.125-2.75-5.75003-6.24998-10.7083-10.5-14.875-4.25002-4.1667-9.2083-7.41666-14.875-9.75-5.6667-2.33334-11.66664-3.5-18-3.5-6.33336 0-12.3333 1.16666-18 3.5-5.6667 2.33334-10.62498 5.5833-14.875 9.75-4.25002 4.1667-7.66665 9.16664-10.25 15-2.58335 5.83336-4.125 12.16663-4.625 19h96zm103.5 65.75c-1 .5-2.45832 1.16666-4.375 2s-4.125 1.66666-6.625 2.5-5.33332 1.58333-8.5 2.25c-3.16668.66667-6.49998 1-10 1-3.66668 0-7.16665-.5-10.5-1.5-3.33335-1-6.25-2.54166-8.75-4.625s-4.5-4.70832-6-7.875c-1.5-3.16668-2.25-6.8333-2.25-11v-93.25h-18v-13.5h18v-44h17v44h30v13.5h-30v88.5c.33334 4.83336 1.99998 8.375 5 10.625s6.5833 3.375 10.75 3.375c4.83336 0 9.0833-.79166 12.75-2.375 3.6667-1.58334 6-2.70833 7-3.375l4.5 13.75z" fill="#5E5E5E"/></g></svg>
