<?xml version="1.0" encoding="UTF-8" standalone="no"?>
<svg width="1580px" height="296px" viewBox="0 0 1580 296" version="1.1" xmlns="http://www.w3.org/2000/svg" xmlns:xlink="http://www.w3.org/1999/xlink" xmlns:sketch="http://www.bohemiancoding.com/sketch/ns">
    <!-- Generator: Sketch 3.2.2 (9983) - http://www.bohemiancoding.com/sketch -->
    <title>Cachet</title>
    <desc>Created with Sketch.</desc>
    <defs></defs>
    <g id="Page-1" stroke="none" stroke-width="1" fill="none" fill-rule="evenodd" sketch:type="MSPage">
        <g id="Cachet" sketch:type="MSArtboardGroup">
            <g id="Icon" sketch:type="MSLayerGroup" transform="translate(8.000000, 10.000000)">
                <path d="M203.656247,22.5075363 L207.908364,18.25542 C187.59758,6.63914745 164.074118,0 139,0 C62.2324198,0 0,62.2324198 0,139 C0,215.76758 62.2324198,278 139,278 C215.76758,278 278,215.76758 278,139 C278,121.94987 274.930156,105.616742 269.313035,90.5231813 L269.313035,90.5231813 L264.787268,95.0489482 C269.594876,108.809354 272.208333,123.599474 272.208333,139 C272.208333,212.568931 212.568931,272.208333 139,272.208333 C65.431069,272.208333 5.79166667,212.568931 5.79166667,139 C5.79166667,65.431069 65.431069,5.79166667 139,5.79166667 C162.4632,5.79166667 184.509555,11.8578965 203.656247,22.5075363 L203.656247,22.5075363 Z" id="Oval-1" stroke="#7ED321" stroke-width="12" sketch:type="MSShapeGroup"></path>
                <path d="M105.697915,173.088048 L106.528258,172.257705 L271.176539,7.60942419 L277.5405,1.24546317 L290.268422,13.9733853 L283.904461,20.3373463 L119.25618,184.985627 L118.425837,185.81597 L105.697917,198.543894 L99.3339556,192.179933 L53.3919048,146.237882 L47.0279438,139.873921 L59.7558659,127.145999 L66.1198269,133.50996 L105.697915,173.088048 L105.697915,173.088048 Z" id="Line" fill="#7ED321" sketch:type="MSShapeGroup"></path>
            </g>
            <path d="M350.75,146.75 C350.75,136.08328 352.666648,125.458386 356.5,114.875 C360.333352,104.291614 365.91663,94.833375 373.25,86.5 C380.58337,78.166625 389.541614,71.4166925 400.125,66.25 C410.708386,61.0833075 422.749932,58.5 436.25,58.5 C452.083413,58.5 465.833275,62.0832975 477.5,69.25 C489.166725,76.4167025 497.833305,85.7499425 503.5,97.25 L472,119.25 C470.166657,114.58331 467.833348,110.708349 465,107.625 C462.166652,104.541651 459.08335,102.041676 455.75,100.125 C452.41665,98.2083238 448.958351,96.8750038 445.375,96.125 C441.791649,95.3749962 438.416682,95 435.25,95 C427.91663,95 421.58336,96.5833175 416.25,99.75 C410.91664,102.916682 406.500018,106.999975 403,112 C399.499982,117.000025 396.875009,122.666635 395.125,129 C393.374991,135.333365 392.5,141.749967 392.5,148.25 C392.5,155.250035 393.541656,161.999967 395.625,168.5 C397.708344,175.000033 400.624981,180.749975 404.375,185.75 C408.125019,190.750025 412.66664,194.708319 418,197.625 C423.33336,200.541681 429.249968,202 435.75,202 C439.08335,202 442.541649,201.541671 446.125,200.625 C449.708351,199.708329 453.16665,198.291676 456.5,196.375 C459.83335,194.458324 462.83332,191.958349 465.5,188.875 C468.16668,185.791651 470.333325,182.000023 472,177.5 L505.75,197.25 C503.08332,203.750033 499.208359,209.583307 494.125,214.75 C489.041641,219.916693 483.250032,224.249982 476.75,227.75 C470.249968,231.250018 463.375036,233.916657 456.125,235.75 C448.874964,237.583343 441.750035,238.5 434.75,238.5 C422.416605,238.5 411.125051,235.875026 400.875,230.625 C390.624949,225.374974 381.791704,218.41671 374.375,209.75 C366.958296,201.08329 361.166688,191.250055 357,180.25 C352.833312,169.249945 350.75,158.08339 350.75,146.75 L350.75,146.75 Z M560.75,239.5 C554.249968,239.5 548.208361,238.458344 542.625,236.375 C537.041639,234.291656 532.25002,231.375019 528.25,227.625 C524.24998,223.874981 521.083345,219.458359 518.75,214.375 C516.416655,209.291641 515.25,203.75003 515.25,197.75 C515.25,191.249967 516.624986,185.33336 519.375,180 C522.125014,174.66664 525.999975,170.083352 531,166.25 C536.000025,162.416648 541.916632,159.416677 548.75,157.25 C555.583368,155.083323 563.166625,154 571.5,154 C577.000027,154 582.333308,154.458329 587.5,155.375 C592.666692,156.291671 597.166647,157.666658 601,159.5 L601,153.5 C601,138.333258 592.250088,130.75 574.75,130.75 C567.583297,130.75 560.750032,131.958321 554.25,134.375 C547.749968,136.791679 540.916703,140.416643 533.75,145.25 L522,120.25 C530.66671,114.583305 539.66662,110.333348 549,107.5 C558.33338,104.666652 568.249947,103.25 578.75,103.25 C598.583433,103.25 613.916612,107.91662 624.75,117.25 C635.583388,126.58338 641,140.24991 641,158.25 L641,192 C641,196.00002 641.749992,198.791659 643.25,200.375 C644.750008,201.958341 647.416647,202.916665 651.25,203.25 L651.25,237 C647.416647,237.833337 643.875016,238.374999 640.625,238.625 C637.374984,238.875001 634.500013,239 632,239 C624.66663,238.833332 619.083353,237.333348 615.25,234.5 C611.416647,231.666652 609.000005,227.58336 608,222.25 L607.25,216.25 C601.416637,223.750037 594.458374,229.49998 586.375,233.5 C578.291626,237.50002 569.750045,239.5 560.75,239.5 L560.75,239.5 Z M572.5,210.75 C576.833355,210.75 581.041646,210.000007 585.125,208.5 C589.208354,206.999993 592.58332,205.000012 595.25,202.5 C599.083353,199.499985 601,196.33335 601,193 L601,180.5 C597.499982,179.16666 593.708354,178.125004 589.625,177.375 C585.541646,176.624996 581.750018,176.25 578.25,176.25 C570.91663,176.25 564.875024,177.91665 560.125,181.25 C555.374976,184.58335 553,188.91664 553,194.25 C553,199.083358 554.833315,203.041651 558.5,206.125 C562.166685,209.208349 566.833305,210.75 572.5,210.75 L572.5,210.75 Z M663.25,171.25 C663.25,162.249955 664.833318,153.625041 668,145.375 C671.166682,137.124959 675.74997,129.875031 681.75,123.625 C687.75003,117.374969 695.124956,112.416685 703.875,108.75 C712.625044,105.083315 722.583278,103.25 733.75,103.25 C748.916743,103.25 761.666615,106.458301 772,112.875 C782.333385,119.291699 790.083308,127.666615 795.25,138 L756.25,149.75 C751.083307,141.416625 743.50005,137.25 733.5,137.25 C725.166625,137.25 718.208361,140.333303 712.625,146.5 C707.041639,152.666697 704.25,160.916615 704.25,171.25 C704.25,176.416693 704.999992,181.124979 706.5,185.375 C708.000008,189.625021 710.08332,193.249985 712.75,196.25 C715.41668,199.250015 718.541649,201.583325 722.125,203.25 C725.708351,204.916675 729.49998,205.75 733.5,205.75 C738.500025,205.75 743.083312,204.541679 747.25,202.125 C751.416688,199.708321 754.49999,196.583352 756.5,192.75 L795.5,204.75 C790.666642,214.916718 782.958386,223.249967 772.375,229.75 C761.791614,236.250033 748.916743,239.5 733.75,239.5 C722.749945,239.5 712.875044,237.625019 704.125,233.875 C695.374956,230.124981 687.958364,225.125031 681.875,218.875 C675.791636,212.624969 671.166682,205.375041 668,197.125 C664.833318,188.874959 663.25,180.250045 663.25,171.25 L663.25,171.25 Z M940,237 L900,237 L900,163.25 C900,154.749957 898.291684,148.50002 894.875,144.5 C891.458316,140.49998 886.833363,138.5 881,138.5 C878.666655,138.5 876.125014,139.041661 873.375,140.125 C870.624986,141.208339 867.958346,142.791656 865.375,144.875 C862.791654,146.958344 860.416677,149.416652 858.25,152.25 C856.083323,155.083348 854.416673,158.249982 853.25,161.75 L853.25,237 L813.25,237 L813.25,54.5 L853.25,54.5 L853.25,127.75 C858.083358,119.916628 864.458294,113.875021 872.375,109.625 C880.291706,105.374979 889.083285,103.25 898.75,103.25 C907.583377,103.25 914.708306,104.791651 920.125,107.875 C925.541694,110.958349 929.708319,114.874976 932.625,119.625 C935.541681,124.375024 937.499995,129.708304 938.5,135.625 C939.500005,141.541696 940,147.333305 940,153 L940,237 Z M1029,239.5 C1017.99995,239.5 1008.12504,237.708351 999.375,234.125 C990.624956,230.541649 983.208364,225.666697 977.125,219.5 C971.041636,213.333303 966.416682,206.208374 963.25,198.125 C960.083318,190.041626 958.5,181.583378 958.5,172.75 C958.5,163.249953 960.083318,154.291709 963.25,145.875 C966.416682,137.458291 970.99997,130.083365 977,123.75 C983.00003,117.416635 990.374956,112.416685 999.125,108.75 C1007.87504,105.083315 1017.83328,103.25 1029,103.25 C1040.16672,103.25 1050.08329,105.083315 1058.75,108.75 C1067.41671,112.416685 1074.74997,117.374969 1080.75,123.625 C1086.75003,129.875031 1091.29165,137.083292 1094.375,145.25 C1097.45835,153.416708 1099,161.999955 1099,171 C1099,173.333345 1098.91667,175.624989 1098.75,177.875 C1098.58333,180.125011 1098.33334,182.083325 1098,183.75 L1001,183.75 C1001.66667,192.583378 1004.87497,199.291644 1010.625,203.875 C1016.37503,208.458356 1022.91663,210.75 1030.25,210.75 C1036.08336,210.75 1041.70831,209.333348 1047.125,206.5 C1052.54169,203.666652 1056.16666,199.833358 1058,195 L1092,204.5 C1086.83331,214.833385 1078.83339,223.249967 1068,229.75 C1057.16661,236.250033 1044.16674,239.5 1029,239.5 L1029,239.5 Z M1056.75,159 C1055.91666,150.666625 1052.91669,144.083358 1047.75,139.25 C1042.58331,134.416642 1036.16671,132 1028.5,132 C1020.66663,132 1014.20836,134.458309 1009.125,139.375 C1004.04164,144.291691 1001.08334,150.833292 1000.25,159 L1056.75,159 Z M1200.5,230 C1194.99997,232.333345 1188.75004,234.49999 1181.75,236.5 C1174.74996,238.50001 1167.58337,239.5 1160.25,239.5 C1155.24998,239.5 1150.54169,238.875006 1146.125,237.625 C1141.70831,236.374994 1137.83335,234.375014 1134.5,231.625 C1131.16665,228.874986 1128.54168,225.250023 1126.625,220.75 C1124.70832,216.249977 1123.75,210.833365 1123.75,204.5 L1123.75,136 L1107,136 L1107,105.75 L1123.75,105.75 L1123.75,64 L1163.75,64 L1163.75,105.75 L1190.5,105.75 L1190.5,136 L1163.75,136 L1163.75,190.75 C1163.75,195.083355 1164.87499,198.208324 1167.125,200.125 C1169.37501,202.041676 1172.16665,203 1175.5,203 C1178.33335,203 1181.33332,202.500005 1184.5,201.5 C1187.66668,200.499995 1190.49999,199.416673 1193,198.25 L1200.5,230 Z M1372,59.5 L1372,237 L1331,237 L1331,164.25 L1260.25,164.25 L1260.25,237 L1219.25,237 L1219.25,59.5 L1260.25,59.5 L1260.25,128.25 L1331,128.25 L1331,59.5 L1372,59.5 Z M1523.25,226.25 C1516.91664,230.083352 1510.20837,233.041656 1503.125,235.125 C1496.04163,237.208344 1488.50004,238.25 1480.5,238.25 C1467.83327,238.25 1456.33338,235.708359 1446,230.625 C1435.66662,225.541641 1426.7917,218.791709 1419.375,210.375 C1411.9583,201.958291 1406.20835,192.333388 1402.125,181.5 C1398.04165,170.666612 1396,159.500057 1396,148 C1396,136.333275 1398.12498,125.083388 1402.375,114.25 C1406.62502,103.416612 1412.54163,93.833375 1420.125,85.5 C1427.70837,77.166625 1436.70828,70.5416912 1447.125,65.625 C1457.54172,60.7083087 1468.9166,58.25 1481.25,58.25 C1493.91673,58.25 1505.41662,60.8749737 1515.75,66.125 C1526.08338,71.3750263 1534.9583,78.2499575 1542.375,86.75 C1549.7917,95.2500425 1555.49998,104.916613 1559.5,115.75 C1563.50002,126.583388 1565.5,137.583278 1565.5,148.75 C1565.5,159.750055 1563.66669,170.208284 1560,180.125 C1556.33331,190.041716 1551.25003,199.083292 1544.75,207.25 L1571.75,237 L1533,237 L1523.25,226.25 Z M1481,201.75 C1487.33336,201.75 1492.91664,200.500012 1497.75,198 L1469.75,167 L1508.25,167 L1517.5,177.25 C1521.66669,168.083288 1523.75,158.333385 1523.75,148 C1523.75,141.166632 1522.79168,134.541699 1520.875,128.125 C1518.95832,121.708301 1516.16668,116.041691 1512.5,111.125 C1508.83332,106.208309 1504.33336,102.250015 1499,99.25 C1493.66664,96.249985 1487.58337,94.75 1480.75,94.75 C1473.5833,94.75 1467.33336,96.2916513 1462,99.375 C1456.66664,102.458349 1452.20835,106.541641 1448.625,111.625 C1445.04165,116.708359 1442.33334,122.458301 1440.5,128.875 C1438.66666,135.291699 1437.75,141.8333 1437.75,148.5 C1437.75,155.333368 1438.70832,161.958301 1440.625,168.375 C1442.54168,174.791699 1445.29165,180.458309 1448.875,185.375 C1452.45835,190.291691 1456.95831,194.249985 1462.375,197.25 C1467.79169,200.250015 1473.99996,201.75 1481,201.75 L1481,201.75 Z" id="CachetHQ" fill="#5E5E5E" sketch:type="MSShapeGroup"></path>
        </g>
    </g>
</svg>